<svg xmlns="http://www.w3.org/2000/svg" xmlns:xlink="http://www.w3.org/1999/xlink" width="40" zoomAndPan="magnify" viewBox="0 0 30 30.000001" height="40" preserveAspectRatio="xMidYMid meet" version="1.0"><defs><clipPath id="0e9c58554d"><path d="M 9.195312 8.964844 L 20.804688 8.964844 L 20.804688 19.851562 L 9.195312 19.851562 Z M 9.195312 8.964844 " clip-rule="nonzero"/></clipPath></defs><g clip-path="url(#0e9c58554d)"><path fill="#000000" d="M 20.632812 19.109375 L 18.101562 16.625 C 18.691406 15.828125 19.039062 14.847656 19.039062 13.792969 C 19.039062 11.128906 16.832031 8.964844 14.117188 8.964844 C 11.402344 8.964844 9.195312 11.128906 9.195312 13.792969 C 9.195312 16.453125 11.402344 18.621094 14.117188 18.621094 C 15.433594 18.621094 16.632812 18.109375 17.515625 17.28125 L 20.007812 19.722656 C 20.09375 19.808594 20.207031 19.851562 20.320312 19.851562 C 20.433594 19.851562 20.546875 19.808594 20.632812 19.722656 C 20.808594 19.554688 20.808594 19.277344 20.632812 19.109375 Z M 14.117188 17.75 C 11.890625 17.75 10.082031 15.972656 10.082031 13.792969 C 10.082031 11.609375 11.890625 9.832031 14.117188 9.832031 C 16.34375 9.832031 18.152344 11.609375 18.152344 13.792969 C 18.152344 15.972656 16.34375 17.75 14.117188 17.75 Z M 14.117188 17.75 " fill-opacity="1" fill-rule="nonzero"/></g></svg>